<svg width="201.99649" height="201.99651" viewBox="0 0 53.444904 53.444909" version="1.1" xmlns="http://www.w3.org/2000/svg"><defs><clipPath clipPathUnits="userSpaceOnUse" id="clipPath3"><rect width="45.412918" height="38.829464" x="58.687336" y="9.9874487" /></clipPath></defs><g transform="translate(2.9099541,2.9099543)"><circle style="fill:#000000" cx="23.8125" cy="23.8125" r="26.722454" /><path style="fill:#f9f9f9" d="m 62.50259,60.680622 c -1.175755,-0.151331 -1.908175,-0.599178 -2.26664,-1.385965 c -0.160655,-0.352618 -0.196182,-0.654018 -0.226244,-1.919355 c -0.04403,-1.853298 0.06846,-2.35428 0.661652,-2.946655 c 0.504543,-0.503849 1.097168,-0.695527 2.528408,-0.817785 c 1.353114,-0.115585 4.300555,-0.02315 5.205579,0.163249 c 1.704421,0.351046 2.284349,1.385565 2.156724,3.847324 c -0.05716,1.102561 -0.243012,1.81773 -0.574866,2.212116 c -0.342714,0.407293 -1.18463,0.741652 -2.1443,0.851588 c -0.971641,0.111308 -4.463363,0.108354 -5.340313,-0.0045 z m 5.092132,-1.486064 c 0.59613,-0.255869 0.760061,-0.685385 0.760061,-1.991428 c 0,-1.210783 -0.163552,-1.696878 -0.662548,-1.969167 c -0.27358,-0.149285 -0.557026,-0.168839 -2.44742,-0.168839 c -2.332286,0 -2.495014,0.03064 -2.8733,0.540948 c -0.167484,0.225938 -0.198503,0.420455 -0.224945,1.410621 c -0.03639,1.362758 0.116688,1.86882 0.649984,2.148747 c 0.638709,0.335259 4.036867,0.355881 4.798168,0.02912 z M 50.232298,57.699347 C 49.184211,56.060534 48.168806,54.473224 47.975842,54.171991 L 47.625,53.624295 h 1.190388 h 1.190389 l 1.008691,1.557025 c 2.204692,3.403184 2.426507,3.738762 2.471317,3.738787 c 0.02556,1.4e-5 0.419883,-0.679114 0.876267,-1.509173 c 0.456384,-0.830059 1.120264,-2.021623 1.47529,-2.647919 l 0.645501,-1.13872 h 1.106403 h 1.106403 l -0.131877,0.209152 c -0.129302,0.205069 -2.298895,4.023128 -3.35421,5.902754 l -0.534953,0.952807 l -1.268348,-0.005 l -1.268349,-0.005 z m 23.23919,-0.542696 v -3.532356 h 1.022525 h 1.022524 v 1.533786 c 0,0.843583 0.02007,1.533787 0.04461,1.533787 c 0.0422,0 1.518386,-1.026382 3.498753,-2.432664 l 0.894097,-0.634909 l 1.383344,0.0031 l 1.383344,0.0031 l -0.232392,0.194821 c -0.307969,0.258179 -2.458374,1.786081 -3.414231,2.425872 l -0.759155,0.508132 l 0.250797,0.232098 c 0.26092,0.241468 3.852435,3.125667 4.340894,3.485997 l 0.278871,0.205718 l -1.39641,0.0029 l -1.39641,0.0029 l -1.531728,-1.22002 c -0.84245,-0.670936 -1.666943,-1.323714 -1.832206,-1.450544 l -0.300478,-0.230598 l -0.443176,0.255082 c -0.788932,0.454092 -0.768524,0.411829 -0.768524,1.59156 v 1.054595 h -1.022524 h -1.022525 z m 11.898465,0 v -3.532356 l 3.369683,0.0024 c 4.04072,0.0029 5.007557,0.07678 5.661666,0.432794 c 0.671108,0.365263 0.938395,0.860791 0.989086,1.833686 c 0.07329,1.406679 -0.299455,2.050959 -1.401065,2.421684 l -0.622762,0.209579 l 1.16269,1.059047 l 1.16269,1.059047 l -1.280049,0.02898 l -1.280049,0.02898 L 92.06284,59.579167 l -1.069003,-1.121331 l -1.777535,1.05e-4 l -1.777536,1.05e-4 l 0.02228,1.115481 l 0.02228,1.115481 h -1.056689 h -1.056684 z m 7.328749,-0.11452 c 0.406761,-0.169262 0.572576,-0.423508 0.572576,-0.877935 c 0,-0.995822 -0.179292,-1.05265 -3.320219,-1.052375 l -2.489579,2.18e-4 l 0.01457,0.952589 c 0.008,0.523923 0.01847,0.985209 0.02324,1.025079 c 0.01387,0.116057 4.913924,0.07122 5.199409,-0.04758 z m 6.428852,0.11452 v -3.532356 h 1.022526 h 1.02252 v 3.532356 v 3.532357 h -1.02252 h -1.022526 z m 5.252056,3.289441 c 0.4303,-0.364509 3.44765,-2.781302 3.72138,-2.980698 l 0.24306,-0.177057 l -0.91322,-0.784735 c -0.50227,-0.431605 -1.44702,-1.256014 -2.09945,-1.832021 l -1.18624,-1.047286 h 1.36149 h 1.3615 l 0.79012,0.720415 c 1.48268,1.351869 2.05541,1.807078 2.17966,1.732395 c 0.0655,-0.03938 0.71068,-0.607368 1.43372,-1.262202 l 1.31461,-1.190608 l 1.28818,0.0042 l 1.28817,0.0042 l -0.46478,0.421368 c -0.25563,0.231752 -1.1673,1.028591 -2.02594,1.770753 c -1.33146,1.150857 -1.54391,1.370157 -1.44398,1.490565 c 0.12982,0.156432 2.39405,2.132155 3.31207,2.890064 l 0.58581,0.483632 l -1.42242,-0.0032 l -1.42241,-0.0032 l -1.32656,-1.163549 l -1.32655,-1.163394 l -1.39586,1.166637 l -1.39585,1.166637 l -1.36769,-0.0033 l -1.36769,-0.0033 z M 79.805699,47.698302 l -1.392793,-1.185199 l -0.0074,-3.222537 l -0.0074,-3.222537 l 1.440393,-1.076713 c 0.792217,-0.592192 1.463929,-1.076713 1.492695,-1.076713 c 0.02876,0 0.583217,0.411967 1.232114,0.915483 c 0.648896,0.503516 1.294846,0.989378 1.435443,1.079694 l 0.255631,0.16421 v 3.186707 v 3.186707 l -1.439961,1.218048 c -0.791978,0.669927 -1.479574,1.218048 -1.52799,1.218048 c -0.04842,0 -0.714786,-0.533339 -1.480822,-1.185198 z m -3.500266,-2.883984 c -0.420481,-0.390275 -7.906546,-7.107042 -8.943968,-8.02485 l -0.672052,-0.594565 l -0.0019,-2.726732 c -0.0012,-1.678368 0.03199,-2.714818 0.08622,-2.695745 c 0.04846,0.01704 1.707574,1.536885 3.686926,3.377428 c 1.979352,1.840544 4.198555,3.902473 4.931561,4.582064 l 1.332739,1.23562 v 2.598846 c 0,1.429365 -0.01046,2.5978 -0.02324,2.596522 c -0.01278,-0.0013 -0.191118,-0.158143 -0.396303,-0.348588 z m 9.436347,-2.229616 v -2.580528 l 3.927424,-3.63269 c 4.861365,-4.496545 6.086577,-5.614551 6.152929,-5.614551 c 0.02856,0 0.05193,1.224398 0.05193,2.720884 v 2.720884 l -1.092242,0.979566 c -0.600733,0.53876 -2.84147,2.556229 -4.979416,4.483264 c -2.137946,1.927034 -3.926202,3.503699 -3.973902,3.503699 c -0.05158,0 -0.08673,-1.045726 -0.08673,-2.580528 z m -0.912509,-4.928065 c -0.261273,-0.190439 -0.829896,-0.597236 -1.263605,-0.903994 l -0.788563,-0.55774 l -0.005,-4.008541 l -0.005,-4.008541 l 0.441545,-0.402666 c 0.448729,-0.409162 7.126213,-6.711467 10.432909,-9.846671 c 0.997813,-0.946064 3.069121,-2.90928 4.602908,-4.362701 c 1.533786,-1.453422 3.008315,-2.853129 3.276725,-3.11046 l 0.48802,-0.4678741 l -0.005,6.1319701 l -0.005,6.131971 l -1.83047,1.713793 c -1.006759,0.942587 -3.685725,3.473334 -5.953257,5.623884 c -5.619475,5.329565 -6.778883,6.426053 -7.924695,7.494632 l -0.985627,0.91919 z m -8.455065,-0.50868 C 75.928051,36.726302 74.726404,35.584076 73.70388,34.609677 C 67.963253,29.139234 65.772227,27.064298 62.618786,24.11192 L 60.550499,22.175505 V 16.087391 V 9.9992766 l 0.580979,0.5462274 c 0.319539,0.300425 1.33393,1.260776 2.254202,2.134113 c 3.534833,3.354555 9.468029,8.946218 13.057322,12.305704 c 0.896415,0.839021 2.037694,1.922223 2.536174,2.407115 l 0.906329,0.881621 v 3.929818 v 3.929817 l -1.246975,0.890455 c -0.685835,0.489751 -1.29336,0.890456 -1.350053,0.890456 c -0.05669,0 -0.468116,-0.344991 -0.914271,-0.766646 z" clip-path="url(#clipPath3)" transform="matrix(0.92048925,0,0,0.92048925,-51.109613,-3.2518913)" /></g></svg>
